<svg xmlns="http://www.w3.org/2000/svg" viewBox="0 0 512 512"><path fill="#dbd2ca" d="M321.6 231.3s58.7 4.4 94 50.8l-47.8 38s-54.8-66-46.2-88.8z"/><path fill="#f7ede3" d="M154.4 333.8h-24a32.2 32.2 0 0 1-32.1-32.2V182.4h56.1v151.4z"/><path fill="#ede3db" d="M154.4 317H133c-9.1 0-16.5-7.5-16.5-16.6v-118H98.3v119.2a32.2 32.2 0 0 0 32.2 32.2h24V317z"/><path fill="#f7ede3" d="M374 376c0 83.1-55.7 127.8-124.3 127.8s-124.3-44.7-124.3-127.9 40.4-173.3 124.3-173.3 124.2 90.1 124.2 173.3z"/><path fill="#dbd2ca" d="M268.5 497.5c-68.6 0-124.3-44.7-124.3-127.8 0-67.6 26.7-139.8 81.7-164.5-67.7 15.3-100.5 95.9-100.5 170.7 0 83.2 55.7 127.9 124.3 127.9 19.3 0 37.5-3.5 53.8-10.5a144.7 144.7 0 0 1-35 4.2z"/><path fill="#dbd2ca" d="M268.5 497.5c-68.6 0-124.3-44.7-124.3-127.8 0-67.6 26.7-139.8 81.7-164.5-67.7 15.3-100.5 95.9-100.5 170.7 0 83.2 55.7 127.9 124.3 127.9 19.3 0 37.5-3.5 53.8-10.5a144.7 144.7 0 0 1-35 4.2z"/><path fill="#f75534" d="M346.6 263.7a290.3 290.3 0 0 1-97 15.4c-30 0-58.4-3.8-83.6-11a227 227 0 0 1-13.3-4.4 163 163 0 0 1 15.4-22.2l.3-.4c20-23.5 47-38.5 81.3-38.5 44.3 0 76.5 25.1 97 61.1z"/><path fill="#ffe666" d="M212.4 486.8L198 472.4a59.6 59.6 0 0 1 0-84.3l74.1-74a60 60 0 0 1 84.5 0l14.5 14.5a59.6 59.6 0 0 1 0 84.2l-74.2 74a60 60 0 0 1-84.5 0z"/><path fill="#edbf31" d="M225.3 474.7L210.4 460a61.3 61.3 0 0 1-9.8-74.4L198 388a59.6 59.6 0 0 0 0 84.3l14.4 14.4a60 60 0 0 0 84.5 0l1.4-1.4a61.8 61.8 0 0 1-73-10.7z"/><path fill="#f7ede3" d="M135.1 228h-28a20.4 20.4 0 0 1-20.4-20.4v-46.4c0-11.2 9.2-20.4 20.4-20.4h28c11.3 0 20.4 9.2 20.4 20.4v46.4c0 11.2-9.1 20.4-20.4 20.4z"/><path fill="#dbd2ca" d="M103.7 207.6v-46.4c0-11.2 9.1-20.4 20.4-20.4h-17a20.4 20.4 0 0 0-20.4 20.4v46.4c0 11.2 9.2 20.4 20.4 20.4h17a20.4 20.4 0 0 1-20.4-20.4z"/><path fill="#f7ede3" d="M357.5 347.4l-19.8-19.7c-8-8-8-20.9 0-28.8l33-32.8c8-8 20.8-8 28.8 0l19.8 19.7c8 8 8 20.8 0 28.8l-33 32.8c-7.9 8-20.8 8-28.8 0z"/><path fill="#ffe666" d="M291.8 278a41.9 41.9 0 0 1-42.1 42.1 42 42 0 1 1 42-42z"/><path fill="#edbf31" d="M229 273.3a42 42 0 0 1 22.5-37.2 42.5 42.5 0 0 0-20.2 4.1 42 42 0 1 0 38 75.1 42 42 0 0 1-40.3-42z"/><path fill="#bd391e" d="M225.8 205.2C199.4 217 179.5 240 166 268a227 227 0 0 1-13.3-4.3 163 163 0 0 1 12.6-18.8 106.9 106.9 0 0 1 60.5-39.7z"/><path fill="#f75534" d="M169.2 8.8c10 7.7 32 26.6 45.9 53 1 2.1.5 4.7-1.5 6L168 99.7a4.7 4.7 0 0 1-7.2-2.7 165.1 165.1 0 0 1 1.2-86c1-3 4.7-4.2 7.3-2.2z"/><path fill="#bd391e" d="M173.2 77.7c-2-10.5-4-28.1.4-46.6 7 6 17.2 16 24.8 29l-25.2 17.6z"/><path fill="#f75534" d="M330.2 8.8c-10 7.7-32 26.6-46 53-1 2.1-.4 4.7 1.5 6l45.8 31.9c2.7 1.8 6.4.4 7.2-2.7a165.1 165.1 0 0 0-1.2-86c-1-3-4.8-4.2-7.3-2.2z"/><path fill="#bd391e" d="M326.3 77.7c2-10.5 4-28.1-.4-46.6-7 6-17.2 16-24.8 29l25.2 17.6z"/><path fill="#f7ede3" d="M274.1 236h-48.9a71 71 0 0 1-70.8-70.8v-37.8a82 82 0 0 1 81.8-81.8h27a82 82 0 0 1 81.8 81.8v37.8A71 71 0 0 1 274 236z"/><path fill="#dbd2ca" d="M173.2 165.2v-37.8A82 82 0 0 1 255 45.6h-18.8a82 82 0 0 0-81.8 81.8v37.8a71 71 0 0 0 70.8 70.8H244a71 71 0 0 1-70.8-70.8z"/><circle cx="249.7" cy="162.5" r="7.8"/><path fill="#f7ede3" d="M411.5 504.2H321a4.2 4.2 0 0 1-4.2-4.2v-28a28.6 28.6 0 0 1 28.6-28.6H387a28.6 28.6 0 0 1 28.6 28.6v28c0 2.3-1.8 4.2-4.1 4.2z"/><path fill="#dbd2ca" d="M335.6 500v-28a28.6 28.6 0 0 1 28.6-28.6h-18.8a28.6 28.6 0 0 0-28.6 28.6v28c0 2.3 1.9 4.2 4.2 4.2h18.8a4.2 4.2 0 0 1-4.2-4.2z"/><path fill="#f7ede3" d="M181.4 504.2H90.9a4.2 4.2 0 0 1-4.2-4.2v-28a28.6 28.6 0 0 1 28.7-28.6h41.5a28.6 28.6 0 0 1 28.7 28.6v28c0 2.3-1.9 4.2-4.2 4.2z"/><path fill="#dbd2ca" d="M105.5 500v-28a28.6 28.6 0 0 1 28.7-28.6h-18.8A28.6 28.6 0 0 0 86.7 472v28c0 2.3 1.9 4.2 4.2 4.2h18.8a4.2 4.2 0 0 1-4.2-4.2z"/><path d="M206.4 399.9c-3 3-3 8 0 11l67.6 67.5a7.8 7.8 0 0 0 11.1 0c3-3 3-8 0-11l-67.6-67.5c-3.1-3-8-3-11.1 0zM231 375.4c-3.1 3-3.1 8 0 11l67.6 67.6a7.8 7.8 0 0 0 11 0c3.1-3.1 3-8 0-11.1L242 375.4c-3-3-8-3-11 0zM255.4 351c-3 3-3 8 0 11l67.7 67.5a7.8 7.8 0 0 0 11 0c3.1-3.1 3.1-8 0-11.1l-67.6-67.5c-3-3-8-3-11 0zM353.2 407.3a7.8 7.8 0 0 0 5.5-13.4l-67.6-67.5a7.8 7.8 0 1 0-11.1 11.1l67.6 67.5a7.8 7.8 0 0 0 5.6 2.3zM236.4 192.3c-3 0-5.4-2.4-5.4-5.4v-3.4a7.8 7.8 0 0 0-15.7 0v3.4c0 11.7 9.5 21.1 21.1 21.1 6.5 0 10.6-2.7 13.3-6.1 2.6 3.4 6.7 6.1 13.2 6.1 11.7 0 21.1-9.4 21.1-21v-3.5a7.8 7.8 0 1 0-15.6 0v3.4a5.4 5.4 0 0 1-6.4 5.3c-.8-.7-1.5-4.6-1.8-6.3-.6-3.7-2-12.5-10.5-12.5s-10 8.8-10.6 12.5c-.2 1.7-.9 5.6-1.7 6.3l-1 .1zM179.2 126.9a7.8 7.8 0 1 0 10.9 11.3c15.5-15 36-3.6 37-3a7.8 7.8 0 0 0 7.8-13.6c-10.8-6.3-36.4-13.3-55.7 5.3zM272.3 135.1c.2 0 21.3-12 37 3a7.8 7.8 0 0 0 11-.2c3-3 3-8-.2-11-19.3-18.6-44.8-11.6-55.6-5.3a7.8 7.8 0 1 0 7.8 13.5z"/><path d="M433.1 300.2a28 28 0 0 0-8.3-20l-3.3-3.3c-31.8-41.3-80.5-51-95.1-53a78.5 78.5 0 0 0 26.4-58.7v-37.8c0-11-2-21.7-5.8-31.6 1.8-7.8 3.9-19.2 4.5-32.9a7.8 7.8 0 1 0-15.7-.7c-.2 4.1-.5 8-.9 11.6a90.2 90.2 0 0 0-32-26.6c10-13 20.9-23.1 28.4-29.3.7 2.4 1.2 4.9 1.7 7.3a7.8 7.8 0 0 0 15.4-3.1c-1-4.5-2-9-3.4-13.4a12.4 12.4 0 0 0-19.6-6.1c-8.6 6.6-24.2 20-37.6 38.7a89.3 89.3 0 0 0-24.7-3.5h-26.9c-8.5 0-16.8 1.2-24.7 3.5-13.3-18.7-29-32.1-37.5-38.7a12.5 12.5 0 0 0-19.6 6.1 172.9 172.9 0 0 0-2 87.1 89.2 89.2 0 0 0-5.8 31.6v8A28 28 0 0 0 135 133h-28A28.3 28.3 0 0 0 79 161.2v46.4c0 9.3 4.5 17.6 11.5 22.7v71.2a40 40 0 0 0 29.6 38.7c-1 6.9-1.6 13.8-2 21a7.8 7.8 0 0 0 15.6.8 253.9 253.9 0 0 1 3-27.4 206.8 206.8 0 0 1 19.8-61.3c13.6 4.4 28.2 7.8 43.6 10a50 50 0 0 0 47.2 44.6l-7 7a7.8 7.8 0 1 0 11 11.1l26.4-26.3 1.2-1.2a52.6 52.6 0 0 1 46.1-12.8 28.3 28.3 0 0 0 7.3 27.5l19.8 19.7a28.2 28.2 0 0 0 27.6 7.2c3.5 17-1.6 34.7-14 47.2l-29.7 29.5a36.6 36.6 0 0 0-25.7 25.6l-18.8 18.8a51.4 51.4 0 0 1-24.5 13.7h-.4l-.4.1a142.6 142.6 0 0 1-17.7 1 51.2 51.2 0 0 1-30.5-14.8l-14.4-14.4a51.3 51.3 0 0 1-15.1-36.6c0-13.8 5.3-26.8 15-36.5l22.5-22.4a7.8 7.8 0 1 0-11-11.1l-22.5 22.4a66.9 66.9 0 0 0-19 56.9c-5-2.5-10.6-4-16.5-4h-11.2c-6-12.6-10-26.8-11.6-42.4a7.8 7.8 0 0 0-15.6 1.6 147 147 0 0 0 10 40.9h-13.1A36.5 36.5 0 0 0 78.9 472v32.2c0 4.3 3.5 7.8 7.8 7.8h98.9c4.3 0 7.8-3.5 7.8-7.8v-3.4a145.7 145.7 0 0 0 54 10.8 68.2 68.2 0 0 0 21.1-1h.6l.5-.2c14-1.8 27.2-5.4 39.3-10.9v4.7c0 4.3 3.6 7.8 7.9 7.8h98.8c4.4 0 7.9-3.5 7.9-7.8V472a36.5 36.5 0 0 0-36.5-36.4h-16.2c2.2-5.5 4.1-11.2 5.7-17.1l.1-.1a67.4 67.4 0 0 0 17-67l31.2-31.3a28 28 0 0 0 8.3-20zM160.8 496.3v-15.2a7.8 7.8 0 0 0-15.6 0v15.2h-18v-15.2a7.8 7.8 0 0 0-15.7 0v15.2h-17V472c0-11.4 9.4-20.7 20.9-20.7h41.5c11.5 0 20.8 9.3 20.8 20.7V496.4h-16.9zm32.6-17.4l8.4 8.4c-2.8-1.1-5.7-2.4-8.4-3.7v-4.7zm214.4-6.9v24.3h-18.5v-15.2a7.8 7.8 0 1 0-15.7 0v15.2h-18v-15.2a7.8 7.8 0 1 0-15.7 0v15.2h-15.3v-9.7V472a20.8 20.8 0 0 1 20.8-20.7H387c11.5 0 20.8 9.3 20.8 20.7zm-73-212.6a255 255 0 0 1-36.3 8.2c-2-9.4-6.7-17.9-13.3-24.5a78 78 0 0 0 27.4-9.3h.1a108.7 108.7 0 0 1 6.2 5.8l.3.3c5.6 5.7 10.8 12.2 15.6 19.5zm23 8.3l-3.3-6c-3.6-6.5-7.5-12.5-11.6-18.2 8.5 2.5 18.7 6.2 29.2 12-2.5 1.2-4.9 2.9-7 5l-7.2 7.2zM263.2 53.5c8.8 0 17.3 1.5 25 4.4l.7.2a74.4 74.4 0 0 1 48.3 69.3v37.8a63 63 0 0 1-63 63H250h-.2-24.5a62.8 62.8 0 0 1-61.8-51.2v-15.8c0-2.7-.4-5.3-1.2-7.8v-26a73.5 73.5 0 0 1 49.2-69.6c7.8-2.8 16.1-4.3 24.8-4.3h27zm-100.8 162l.5-2.4c3.2 4.1 6.8 8 10.7 11.4-3.9 3.6-7.7 7.6-11.2 11.8v-20.9zM168 17.8c7.5 6.2 18.4 16.2 28.3 29.3a90.2 90.2 0 0 0-32 26.6c-1.7-15.2-2-35.2 3.7-55.9zM94.6 161.2c0-6.9 5.6-12.5 12.5-12.5h28c7 0 12.6 5.6 12.6 12.5v46.4c0 7-5.6 12.5-12.6 12.5H129v-22.8a7.8 7.8 0 0 0-15.7 0v22.8H107c-6.9 0-12.5-5.6-12.5-12.5v-46.4zM106 301.5v-65.7h29c4.1 0 8-.9 11.5-2.4v25.3l-.7 1.2-4.6 8 .3.2c-8.5 16.8-15 36-19 56.5a24.4 24.4 0 0 1-16.5-23zm59.4-43.5a155.9 155.9 0 0 1 2.8-4l.8-1c3-4 6.1-7.8 9.4-11.3l1-1a114.4 114.4 0 0 1 6.8-6.5l.4-.4c8.4 4.7 17.6 7.9 27.4 9.3a49.8 49.8 0 0 0-13.2 24.5c-12.8-2-25-4.7-36.3-8.2l1-1.4zm50 20a34.3 34.3 0 0 1 34-34.1h.4a34.3 34.3 0 0 1 23.8 58.5 64.7 64.7 0 0 0-4.7 4 34 34 0 0 1-11.5 5v-30.5a7.8 7.8 0 0 0-15.7 0v30.5a34.3 34.3 0 0 1-26.4-33.3zm82.4 13c.7-2.5 1.2-5 1.4-7.6 15.4-2.3 30-5.7 43.6-10.1l3.1 6.3-12.2 12.1a68.8 68.8 0 0 0-35.9-.7zm115.9 18l-33 32.8c-4.9 5-12.8 5-17.8 0l-4.3-4.3 16.2-16a7.8 7.8 0 1 0-11-11.2l-16.3 16.2-4.3-4.4a12.4 12.4 0 0 1-1.1-16.4v-.1l1-1.2 17.8-17.6v-.1l15.2-15.1a12.6 12.6 0 0 1 17.8 0l16 16 3.8 3.7a12.4 12.4 0 0 1 0 17.7z"/><path d="M205 155.8l-31.6-3.7a7.8 7.8 0 0 0-1.8 15.6l31.6 3.6h.9a7.8 7.8 0 0 0 .9-15.5zM203 177l-27.7 3.8a7.8 7.8 0 1 0 2.1 15.6l27.7-3.8A7.8 7.8 0 1 0 203 177zM287.5 164.5a7.8 7.8 0 0 0 8.7 6.8l31.6-3.6a7.8 7.8 0 1 0-1.9-15.6l-31.5 3.7a7.8 7.8 0 0 0-6.9 8.7zM324 180.8l-27.6-3.8a7.8 7.8 0 0 0-2.2 15.6l27.8 3.8h1a7.8 7.8 0 0 0 1-15.6z"/></svg>